<?xml version="1.0" encoding="UTF-8" standalone="no"?>
<!DOCTYPE svg PUBLIC "-//W3C//DTD SVG 1.1//EN" "http://www.w3.org/Graphics/SVG/1.1/DTD/svg11.dtd">
<svg width="100%" height="100%" viewBox="0 0 95 95" version="1.1" xmlns="http://www.w3.org/2000/svg" xmlns:xlink="http://www.w3.org/1999/xlink" xml:space="preserve" xmlns:serif="http://www.serif.com/" style="fill-rule:evenodd;clip-rule:evenodd;stroke-linejoin:round;stroke-miterlimit:2;">
    <g transform="matrix(1.11765,0,0,1.21795,-5.58824,-14.6154)">
        <path d="M47.5,27.6C56.447,12 74.342,12 83.29,19.8C92.237,27.6 92.237,43.2 83.29,58.8C77.026,70.5 60.921,82.2 47.5,90C34.079,82.2 17.974,70.5 11.711,58.8C2.763,43.2 2.763,27.6 11.711,19.8C20.658,12 38.553,12 47.5,27.6Z" style="fill:rgb(255,12,255);"/>
    </g>
    <g transform="matrix(0.860201,0,0,1,-1.49656,15)">
        <g transform="matrix(48,0,0,48,28.4403,45.1698)">
            <path d="M0.073,-0L0.073,-0.716L0.168,-0.716L0.168,-0.361L0.523,-0.716L0.652,-0.716L0.352,-0.426L0.665,-0L0.54,-0L0.285,-0.362L0.168,-0.248L0.168,-0L0.073,-0Z" style="fill:rgb(238,238,238);fill-rule:nonzero;"/>
        </g>
        <g transform="matrix(48,0,0,48,60.4559,45.1698)">
            <path d="M0.066,-0.615L0.066,-0.716L0.154,-0.716L0.154,-0.615L0.066,-0.615ZM0.066,-0L0.066,-0.519L0.154,-0.519L0.154,-0L0.066,-0Z" style="fill:rgb(238,238,238);fill-rule:nonzero;"/>
        </g>
        <g transform="matrix(48,0,0,48,71.1199,45.1698)">
            <path d="M0.258,-0.079L0.271,-0.001C0.246,0.004 0.224,0.007 0.204,0.007C0.172,0.007 0.147,0.002 0.13,-0.008C0.112,-0.018 0.1,-0.032 0.093,-0.048C0.086,-0.065 0.082,-0.099 0.082,-0.152L0.082,-0.45L0.018,-0.45L0.018,-0.519L0.082,-0.519L0.082,-0.647L0.169,-0.7L0.169,-0.519L0.258,-0.519L0.258,-0.45L0.169,-0.45L0.169,-0.147C0.169,-0.122 0.171,-0.106 0.174,-0.099C0.177,-0.091 0.182,-0.086 0.189,-0.082C0.196,-0.077 0.206,-0.075 0.219,-0.075C0.229,-0.075 0.242,-0.076 0.258,-0.079Z" style="fill:rgb(238,238,238);fill-rule:nonzero;"/>
        </g>
    </g>
</svg>
